<svg xmlns="http://www.w3.org/2000/svg" xmlns:xlink="http://www.w3.org/1999/xlink" width="500" zoomAndPan="magnify" viewBox="0 0 375 374.999991" height="500" preserveAspectRatio="xMidYMid meet" version="1.0"><defs><g/><clipPath id="5e03907ad6"><path d="M 287.066406 188.25 L 291.136719 188.25 L 291.136719 192.320312 L 287.066406 192.320312 Z M 287.066406 188.25 " clip-rule="nonzero"/></clipPath><clipPath id="6cea950a68"><path d="M 289.101562 188.25 C 287.976562 188.25 287.066406 189.160156 287.066406 190.285156 C 287.066406 191.40625 287.976562 192.320312 289.101562 192.320312 C 290.226562 192.320312 291.136719 191.40625 291.136719 190.285156 C 291.136719 189.160156 290.226562 188.25 289.101562 188.25 Z M 289.101562 188.25 " clip-rule="nonzero"/></clipPath></defs><g fill="#ffffff" fill-opacity="0.4"><g transform="translate(51.638361, 245.219506)"><g><path d="M 151.65625 -51.703125 C 147.90625 -51.515625 144.160156 -51.117188 140.421875 -50.515625 C 138.785156 -50.304688 137.125 -50.085938 135.4375 -49.859375 C 119.914062 -47.984375 104.445312 -45.640625 89.03125 -42.828125 C 88.257812 -42.703125 87.617188 -42.597656 87.109375 -42.515625 C 86.253906 -42.441406 85.640625 -42.335938 85.265625 -42.203125 C 84.890625 -42.078125 84.613281 -41.816406 84.4375 -41.421875 C 84.269531 -41.023438 84.097656 -40.398438 83.921875 -39.546875 C 83.785156 -39.046875 83.632812 -38.425781 83.46875 -37.6875 C 81.789062 -31.644531 80.347656 -25.546875 79.140625 -19.390625 C 78.347656 -15.410156 77.882812 -11.382812 77.75 -7.3125 C 77.664062 -6.039062 77.757812 -4.832031 78.03125 -3.6875 C 78.3125 -2.539062 79.003906 -1.582031 80.109375 -0.8125 C 80.253906 -0.738281 80.320312 -0.625 80.3125 -0.46875 C 80.300781 -0.320312 80.238281 -0.175781 80.125 -0.03125 C 80.007812 0.113281 79.878906 0.21875 79.734375 0.28125 C 77.492188 1.007812 75.984375 0.414062 75.203125 -1.5 C 74.753906 -2.5625 74.519531 -3.695312 74.5 -4.90625 C 74.476562 -5.007812 74.46875 -5.082031 74.46875 -5.125 C 74.3125 -7.15625 74.34375 -9.207031 74.5625 -11.28125 C 74.789062 -13.363281 75.082031 -15.46875 75.4375 -17.59375 C 76.632812 -23.9375 78.066406 -30.25 79.734375 -36.53125 C 79.828125 -36.789062 79.890625 -37.054688 79.921875 -37.328125 C 80.015625 -37.640625 80.109375 -37.957031 80.203125 -38.28125 C 80.359375 -38.75 80.488281 -39.207031 80.59375 -39.65625 C 80.695312 -40.101562 80.691406 -40.550781 80.578125 -41 C 80.328125 -41.144531 80.09375 -41.21875 79.875 -41.21875 C 79.65625 -41.226562 79.445312 -41.195312 79.25 -41.125 C 79.21875 -41.125 79.171875 -41.117188 79.109375 -41.109375 C 77.296875 -40.804688 75.476562 -40.488281 73.65625 -40.15625 C 73.15625 -40.070312 72.628906 -39.988281 72.078125 -39.90625 C 71.410156 -39.75 70.875 -39.441406 70.46875 -38.984375 C 70.070312 -38.523438 69.707031 -37.984375 69.375 -37.359375 C 68.9375 -36.554688 68.5 -35.753906 68.0625 -34.953125 C 66.1875 -31.546875 64.285156 -28.164062 62.359375 -24.8125 C 59.492188 -19.925781 56.445312 -15.164062 53.21875 -10.53125 C 50 -5.90625 46.5 -1.488281 42.71875 2.71875 C 37.988281 8.101562 32.832031 13.007812 27.25 17.4375 C 18.6875 24 9.242188 27.972656 -1.078125 29.359375 C -10.816406 30.722656 -19.988281 29.535156 -28.59375 25.796875 C -31.007812 24.734375 -33.226562 23.351562 -35.25 21.65625 C -36.613281 20.4375 -37.753906 19.066406 -38.671875 17.546875 C -39.597656 16.035156 -40.21875 14.328125 -40.53125 12.421875 C -40.8125 10.109375 -40.632812 7.898438 -40 5.796875 C -39.375 3.691406 -38.335938 1.703125 -36.890625 -0.171875 C -34.929688 -2.796875 -32.679688 -5.109375 -30.140625 -7.109375 C -27.691406 -9.140625 -25.125 -10.976562 -22.4375 -12.625 C -19.75 -14.269531 -17.023438 -15.796875 -14.265625 -17.203125 C -9.773438 -19.492188 -5.203125 -21.550781 -0.546875 -23.375 C 4.109375 -25.195312 8.816406 -26.867188 13.578125 -28.390625 C 24.859375 -31.859375 36.253906 -34.789062 47.765625 -37.1875 C 53.628906 -38.507812 59.5 -39.648438 65.375 -40.609375 C 67.007812 -40.835938 68.15625 -41.726562 68.8125 -43.28125 C 70.007812 -45.71875 71.21875 -48.171875 72.4375 -50.640625 C 74.332031 -54.421875 76.175781 -58.257812 77.96875 -62.15625 C 86.300781 -80.351562 94.125 -98.753906 101.4375 -117.359375 C 102.0625 -118.941406 102.65625 -120.535156 103.21875 -122.140625 C 103.488281 -122.953125 103.769531 -123.78125 104.0625 -124.625 C 104.40625 -125.695312 105.113281 -126.378906 106.1875 -126.671875 C 106.789062 -126.765625 107.257812 -126.660156 107.59375 -126.359375 C 107.925781 -126.066406 108.03125 -125.628906 107.90625 -125.046875 C 107.757812 -124.546875 107.59375 -124.0625 107.40625 -123.59375 C 106.238281 -120.40625 105.257812 -117.210938 104.46875 -114.015625 C 104.175781 -112.867188 103.882812 -111.75 103.59375 -110.65625 C 100.707031 -100.300781 97.804688 -89.9375 94.890625 -79.5625 C 92.671875 -71.550781 90.429688 -63.519531 88.171875 -55.46875 C 87.535156 -53.101562 86.90625 -50.742188 86.28125 -48.390625 C 86.132812 -47.890625 86 -47.414062 85.875 -46.96875 C 85.84375 -46.851562 85.816406 -46.738281 85.796875 -46.625 C 85.710938 -46.289062 85.648438 -45.96875 85.609375 -45.65625 C 85.566406 -45.34375 85.640625 -45.054688 85.828125 -44.796875 C 86.148438 -44.628906 86.503906 -44.566406 86.890625 -44.609375 C 87.273438 -44.648438 87.628906 -44.695312 87.953125 -44.75 C 88.222656 -44.84375 88.46875 -44.90625 88.6875 -44.9375 C 90.28125 -45.15625 91.882812 -45.414062 93.5 -45.71875 C 95.6875 -46.070312 97.882812 -46.410156 100.09375 -46.734375 C 112.144531 -48.460938 124.207031 -50.148438 136.28125 -51.796875 C 140.226562 -52.367188 144.164062 -52.84375 148.09375 -53.21875 C 148.4375 -53.238281 148.800781 -53.28125 149.1875 -53.34375 C 149.40625 -53.375 149.632812 -53.410156 149.875 -53.453125 C 150.382812 -53.535156 150.878906 -53.566406 151.359375 -53.546875 C 151.847656 -53.535156 152.328125 -53.445312 152.796875 -53.28125 C 152.878906 -53.226562 152.953125 -53.140625 153.015625 -53.015625 C 153.078125 -52.898438 153.09375 -52.800781 153.0625 -52.71875 C 153.082031 -52.582031 153.046875 -52.453125 152.953125 -52.328125 C 152.859375 -52.210938 152.78125 -52.128906 152.71875 -52.078125 C 152.394531 -51.890625 152.039062 -51.765625 151.65625 -51.703125 Z M 65.6875 -37.40625 C 65.78125 -37.695312 65.753906 -37.9375 65.609375 -38.125 C 65.472656 -38.320312 65.285156 -38.398438 65.046875 -38.359375 C 64.648438 -38.335938 64.242188 -38.269531 63.828125 -38.15625 C 63.609375 -38.125 63.394531 -38.09375 63.1875 -38.0625 C 48.707031 -35.53125 34.34375 -32.171875 20.09375 -27.984375 C 14.644531 -26.410156 9.257812 -24.625 3.9375 -22.625 C -1.382812 -20.632812 -6.613281 -18.375 -11.75 -15.84375 C -14.488281 -14.5 -17.171875 -13.023438 -19.796875 -11.421875 C -22.421875 -9.816406 -24.941406 -8.007812 -27.359375 -6 C -29.898438 -3.988281 -32.128906 -1.675781 -34.046875 0.9375 C -36.285156 4.125 -37.316406 7.296875 -37.140625 10.453125 C -36.972656 13.617188 -35.648438 16.476562 -33.171875 19.03125 C -31.359375 20.8125 -29.3125 22.253906 -27.03125 23.359375 C -18.664062 27.472656 -9.289062 28.742188 1.09375 27.171875 C 3.75 26.734375 6.738281 25.890625 10.0625 24.640625 C 13.375 23.359375 16.515625 21.773438 19.484375 19.890625 C 22.453125 18.003906 25.285156 15.878906 27.984375 13.515625 C 34.648438 7.753906 40.644531 1.332031 45.96875 -5.75 C 49.675781 -10.550781 53.09375 -15.53125 56.21875 -20.6875 C 59.34375 -25.851562 62.34375 -31.070312 65.21875 -36.34375 C 65.382812 -36.738281 65.539062 -37.09375 65.6875 -37.40625 Z M 82.390625 -46.234375 C 84.140625 -53.046875 85.984375 -59.84375 87.921875 -66.625 C 88.003906 -67 88.289062 -68.070312 88.78125 -69.84375 C 89.269531 -71.613281 89.832031 -73.664062 90.46875 -76 C 91.113281 -78.34375 91.691406 -80.550781 92.203125 -82.625 C 92.722656 -84.707031 93.066406 -86.257812 93.234375 -87.28125 C 93.410156 -88.3125 93.289062 -88.394531 92.875 -87.53125 C 92.78125 -87.332031 92.707031 -87.132812 92.65625 -86.9375 C 92.300781 -86.1875 91.96875 -85.441406 91.65625 -84.703125 C 89.019531 -78.679688 86.363281 -72.65625 83.6875 -66.625 C 81.019531 -60.601562 78.210938 -54.632812 75.265625 -48.71875 C 74.972656 -48.175781 74.6875 -47.59375 74.40625 -46.96875 C 73.820312 -45.84375 73.257812 -44.710938 72.71875 -43.578125 C 72.5 -43.117188 72.472656 -42.757812 72.640625 -42.5 C 72.816406 -42.238281 73.128906 -42.144531 73.578125 -42.21875 C 74.347656 -42.34375 75.109375 -42.484375 75.859375 -42.640625 C 77.035156 -42.929688 78.207031 -43.171875 79.375 -43.359375 C 80.289062 -43.460938 80.960938 -43.765625 81.390625 -44.265625 C 81.828125 -44.773438 82.160156 -45.429688 82.390625 -46.234375 Z M 82.390625 -46.234375 "/></g></g><g transform="translate(143.104907, 230.363169)"><g><path d="M 20.203125 -18.71875 C 20.535156 -18.269531 20.242188 -17.453125 19.328125 -16.265625 C 18.410156 -15.085938 16.710938 -13.550781 14.234375 -11.65625 C 13.285156 -11.070312 12.601562 -10.617188 12.1875 -10.296875 C 11.769531 -9.972656 11.484375 -9.597656 11.328125 -9.171875 C 11.179688 -8.742188 11.046875 -8.113281 10.921875 -7.28125 C 10.816406 -6.644531 10.671875 -5.804688 10.484375 -4.765625 C 10.210938 -3.453125 9.957031 -2.109375 9.71875 -0.734375 C 9.300781 2.085938 8.722656 4.894531 7.984375 7.6875 C 7.242188 10.476562 6.109375 12.992188 4.578125 15.234375 C 3.046875 17.484375 0.878906 19.164062 -1.921875 20.28125 C -4.753906 21.300781 -7.566406 21.84375 -10.359375 21.90625 C -13.148438 21.96875 -15.945312 21.640625 -18.75 20.921875 C -19.882812 20.617188 -20.941406 20.140625 -21.921875 19.484375 C -23.554688 18.273438 -23.921875 16.675781 -23.015625 14.6875 C -22.523438 13.695312 -21.914062 12.78125 -21.1875 11.9375 C -19.707031 10.300781 -18.144531 8.765625 -16.5 7.328125 C -13.382812 4.691406 -10.164062 2.21875 -6.84375 -0.09375 C -3.53125 -2.414062 -0.171875 -4.679688 3.234375 -6.890625 C 3.460938 -7.046875 3.722656 -7.210938 4.015625 -7.390625 C 4.921875 -8.015625 5.867188 -8.644531 6.859375 -9.28125 C 7.546875 -9.664062 7.960938 -10.238281 8.109375 -11 C 8.140625 -11.257812 8.125 -11.492188 8.0625 -11.703125 C 8 -11.828125 7.910156 -11.890625 7.796875 -11.890625 C 7.679688 -11.890625 7.5625 -11.84375 7.4375 -11.75 C 7.125 -11.476562 6.789062 -11.175781 6.4375 -10.84375 C 6.257812 -10.695312 6.050781 -10.515625 5.8125 -10.296875 C 4.613281 -9.304688 3.296875 -8.75 1.859375 -8.625 C -0.390625 -8.257812 -1.703125 -9.082031 -2.078125 -11.09375 C -2.390625 -12.75 -2.359375 -14.363281 -1.984375 -15.9375 C -1.617188 -17.519531 -0.984375 -19.050781 -0.078125 -20.53125 C 0.015625 -20.6875 0.160156 -20.820312 0.359375 -20.9375 C 0.554688 -21.0625 0.753906 -21.164062 0.953125 -21.25 C 0.984375 -21.25 1.03125 -21.273438 1.09375 -21.328125 C 1.507812 -21.429688 1.851562 -21.375 2.125 -21.15625 C 2.394531 -20.945312 2.492188 -20.640625 2.421875 -20.234375 C 2.265625 -19.648438 2.101562 -19.0625 1.9375 -18.46875 C 1.800781 -18.019531 1.65625 -17.554688 1.5 -17.078125 C 0.9375 -15.296875 0.832031 -13.507812 1.1875 -11.71875 C 1.289062 -11.332031 1.507812 -11.078125 1.84375 -10.953125 C 2.175781 -10.828125 2.519531 -10.878906 2.875 -11.109375 C 3.9375 -11.765625 4.820312 -12.585938 5.53125 -13.578125 C 7.476562 -16.023438 8.972656 -18.722656 10.015625 -21.671875 C 10.160156 -22.085938 10.351562 -22.453125 10.59375 -22.765625 C 10.832031 -23.078125 11.175781 -23.289062 11.625 -23.40625 C 12.21875 -23.570312 12.695312 -23.519531 13.0625 -23.25 C 13.425781 -22.976562 13.582031 -22.570312 13.53125 -22.03125 C 13.28125 -20.21875 12.992188 -18.414062 12.671875 -16.625 C 12.648438 -16.476562 12.617188 -16.34375 12.578125 -16.21875 C 12.492188 -15.820312 12.414062 -15.394531 12.34375 -14.9375 C 12.28125 -14.488281 12.269531 -14.109375 12.3125 -13.796875 C 12.363281 -13.484375 12.53125 -13.351562 12.8125 -13.40625 C 13.820312 -13.769531 15.222656 -14.859375 17.015625 -16.671875 C 18.804688 -18.484375 19.867188 -19.164062 20.203125 -18.71875 Z M 6.96875 -4.671875 C 6.945312 -4.773438 6.960938 -4.867188 7.015625 -4.953125 C 7.085938 -5.191406 7.113281 -5.4375 7.09375 -5.6875 C 7.070312 -5.945312 6.96875 -6.195312 6.78125 -6.4375 C 6.644531 -6.414062 6.535156 -6.398438 6.453125 -6.390625 C 6.191406 -6.285156 5.957031 -6.175781 5.75 -6.0625 C 5.363281 -5.820312 4.976562 -5.554688 4.59375 -5.265625 C 1.457031 -3.160156 -1.664062 -1.007812 -4.78125 1.1875 C -7.894531 3.394531 -10.929688 5.695312 -13.890625 8.09375 C -15.671875 9.550781 -17.316406 11.179688 -18.828125 12.984375 C -20.046875 14.472656 -20.546875 15.6875 -20.328125 16.625 C -20.117188 17.570312 -19.144531 18.300781 -17.40625 18.8125 C -13.414062 20.125 -9.335938 20.265625 -5.171875 19.234375 C -2.328125 18.472656 -0.160156 17.003906 1.328125 14.828125 C 2.828125 12.648438 3.929688 10.15625 4.640625 7.34375 C 5.359375 4.53125 5.929688 1.75 6.359375 -1 C 6.515625 -2.289062 6.71875 -3.515625 6.96875 -4.671875 Z M 6.96875 -4.671875 "/></g></g><g transform="translate(164.110474, 226.951367)"><g><path d="M 3.46875 -7.578125 L 3.390625 -7.5625 C 0.597656 -7.144531 -1.335938 -7.46875 -2.421875 -8.53125 C -3.503906 -9.59375 -3.722656 -11.203125 -3.078125 -13.359375 C -2.515625 -15.003906 -1.71875 -16.492188 -0.6875 -17.828125 C -0.320312 -18.285156 0.0625 -18.664062 0.46875 -18.96875 C 0.875 -19.269531 1.359375 -19.46875 1.921875 -19.5625 C 2.234375 -19.675781 2.617188 -19.675781 3.078125 -19.5625 C 3.210938 -19.539062 3.351562 -19.515625 3.5 -19.484375 C 3.8125 -19.597656 4.113281 -19.753906 4.40625 -19.953125 C 4.46875 -20.035156 4.5625 -20.101562 4.6875 -20.15625 C 5.289062 -20.519531 5.945312 -20.738281 6.65625 -20.8125 C 6.9375 -20.851562 7.234375 -20.898438 7.546875 -20.953125 C 8.710938 -20.960938 9.644531 -20.625 10.34375 -19.9375 C 11.050781 -19.25 11.410156 -18.332031 11.421875 -17.1875 C 11.429688 -16.507812 11.320312 -15.84375 11.09375 -15.1875 C 9.53125 -10.863281 7.050781 -8.335938 3.65625 -7.609375 Z M 6.359375 -18.65625 C 4.828125 -18.46875 3.546875 -17.804688 2.515625 -16.671875 C 1.484375 -15.546875 0.78125 -14.332031 0.40625 -13.03125 C 0.03125 -11.726562 0.03125 -10.707031 0.40625 -9.96875 C 0.789062 -9.238281 1.625 -9.15625 2.90625 -9.71875 C 4.351562 -10.425781 5.554688 -11.503906 6.515625 -12.953125 C 7.472656 -14.410156 7.988281 -15.734375 8.0625 -16.921875 C 8.144531 -18.117188 7.578125 -18.695312 6.359375 -18.65625 Z M 6.359375 -18.65625 "/></g></g><g transform="translate(179.431841, 224.462813)"><g><path d="M 20.515625 -18.109375 C 20.867188 -17.765625 20.59375 -17 19.6875 -15.8125 C 18.78125 -14.625 17.773438 -13.582031 16.671875 -12.6875 C 15.578125 -11.800781 14.285156 -10.882812 12.796875 -9.9375 C 11.828125 -9.300781 10.734375 -8.960938 9.515625 -8.921875 C 8.296875 -8.878906 7.582031 -9.5 7.375 -10.78125 C 7.164062 -12.070312 7.253906 -13.40625 7.640625 -14.78125 C 8.023438 -16.175781 8.046875 -16.867188 7.703125 -16.859375 C 7.359375 -16.847656 6.710938 -16.414062 5.765625 -15.5625 C 3.304688 -13.300781 1.082031 -10.816406 -0.90625 -8.109375 C -1.425781 -7.234375 -2.164062 -6.679688 -3.125 -6.453125 C -3.632812 -6.367188 -4.050781 -6.460938 -4.375 -6.734375 C -4.695312 -7.003906 -4.78125 -7.34375 -4.625 -7.75 C -3.445312 -11.15625 -2.242188 -14.523438 -1.015625 -17.859375 C -0.734375 -18.554688 -0.21875 -19.046875 0.53125 -19.328125 C 0.851562 -19.441406 1.171875 -19.390625 1.484375 -19.171875 C 1.804688 -18.960938 1.992188 -18.691406 2.046875 -18.359375 C 2.054688 -18.046875 1.992188 -17.660156 1.859375 -17.203125 C 1.796875 -16.941406 1.738281 -16.6875 1.6875 -16.4375 C 1.644531 -16.195312 1.648438 -16 1.703125 -15.84375 C 1.753906 -15.695312 1.882812 -15.671875 2.09375 -15.765625 C 2.351562 -15.972656 2.613281 -16.179688 2.875 -16.390625 C 3.539062 -16.929688 4.175781 -17.453125 4.78125 -17.953125 C 5.320312 -18.398438 5.894531 -18.8125 6.5 -19.1875 C 7.113281 -19.5625 7.769531 -19.851562 8.46875 -20.0625 C 9.613281 -20.332031 10.472656 -20.207031 11.046875 -19.6875 C 11.628906 -19.164062 11.820312 -18.34375 11.625 -17.21875 C 11.40625 -16.195312 11.148438 -15.179688 10.859375 -14.171875 C 10.492188 -13.203125 10.519531 -12.515625 10.9375 -12.109375 C 11.363281 -11.703125 12.882812 -12.492188 15.5 -14.484375 L 17.46875 -16.09375 C 19.289062 -17.738281 20.304688 -18.410156 20.515625 -18.109375 Z M 20.515625 -18.109375 "/></g></g><g transform="translate(200.581677, 221.027578)"><g/></g><g transform="translate(222.39515, 217.484552)"><g><path d="M 135.515625 -107.46875 C 136.078125 -107.125 136.601562 -106.722656 137.09375 -106.265625 C 137.59375 -105.804688 137.957031 -105.210938 138.1875 -104.484375 C 138.457031 -103.703125 138.269531 -103.039062 137.625 -102.5 C 137.238281 -102.226562 136.828125 -102.132812 136.390625 -102.21875 C 135.960938 -102.300781 135.628906 -102.5625 135.390625 -103 C 134.710938 -104.1875 133.847656 -105.070312 132.796875 -105.65625 C 131.753906 -106.25 130.632812 -106.742188 129.4375 -107.140625 C 126.8125 -108.003906 124.144531 -108.625 121.4375 -109 C 118.726562 -109.382812 116.019531 -109.660156 113.3125 -109.828125 C 108.789062 -110.046875 102.878906 -109.703125 95.578125 -108.796875 C 88.273438 -107.898438 80.207031 -106.484375 71.375 -104.546875 C 62.550781 -102.617188 53.585938 -100.1875 44.484375 -97.25 C 35.378906 -94.320312 26.765625 -90.925781 18.640625 -87.0625 C 10.515625 -83.207031 3.523438 -78.914062 -2.328125 -74.1875 C -8.179688 -69.46875 -12.289062 -64.347656 -14.65625 -58.828125 C -16.59375 -54.046875 -16.378906 -49.375 -14.015625 -44.8125 C -12.304688 -41.695312 -10.160156 -38.953125 -7.578125 -36.578125 C -3.703125 -33.046875 0.457031 -29.898438 4.90625 -27.140625 C 8.6875 -24.679688 12.5 -22.222656 16.34375 -19.765625 C 20.0625 -17.421875 23.796875 -15.03125 27.546875 -12.59375 C 31.710938 -9.832031 35.835938 -7.023438 39.921875 -4.171875 C 40.296875 -3.890625 40.679688 -3.628906 41.078125 -3.390625 C 43.273438 -1.921875 45.269531 -0.234375 47.0625 1.671875 C 48.945312 3.898438 49.539062 5.765625 48.84375 7.265625 C 48.144531 8.773438 46.554688 9.976562 44.078125 10.875 C 41.597656 11.769531 38.648438 12.398438 35.234375 12.765625 C 31.816406 13.128906 28.335938 13.257812 24.796875 13.15625 C 21.265625 13.050781 18.085938 12.753906 15.265625 12.265625 C 12.453125 11.773438 10.421875 11.125 9.171875 10.3125 C 6.648438 8.632812 6.148438 6.507812 7.671875 3.9375 C 9.359375 1.28125 11.597656 -0.820312 14.390625 -2.375 C 18.421875 -4.726562 22.738281 -5.566406 27.34375 -4.890625 C 28.226562 -4.710938 29.097656 -4.4375 29.953125 -4.0625 C 30.046875 -4.039062 30.125 -4.003906 30.1875 -3.953125 C 30.414062 -3.867188 30.585938 -3.71875 30.703125 -3.5 C 30.816406 -3.289062 30.820312 -3.035156 30.71875 -2.734375 C 30.425781 -2.253906 30.023438 -2.0625 29.515625 -2.15625 C 28.992188 -2.25 28.503906 -2.390625 28.046875 -2.578125 C 24.753906 -3.597656 21.570312 -3.40625 18.5 -2 C 15.4375 -0.59375 13.007812 1.597656 11.21875 4.578125 C 10.476562 6.003906 10.613281 7.125 11.625 7.9375 C 12.632812 8.75 14.082031 9.335938 15.96875 9.703125 C 17.863281 10.078125 19.738281 10.304688 21.59375 10.390625 C 23.457031 10.472656 24.84375 10.507812 25.75 10.5 C 25.925781 10.476562 26.050781 10.484375 26.125 10.515625 C 26.300781 10.484375 26.519531 10.460938 26.78125 10.453125 C 27.957031 10.523438 29.550781 10.539062 31.5625 10.5 C 33.582031 10.457031 35.648438 10.316406 37.765625 10.078125 C 39.878906 9.835938 41.65625 9.40625 43.09375 8.78125 C 44.53125 8.164062 45.253906 7.289062 45.265625 6.15625 C 45.285156 5.019531 44.1875 3.53125 41.96875 1.6875 C 39.601562 -0.28125 37.144531 -2.160156 34.59375 -3.953125 C 28.226562 -8.390625 21.742188 -12.640625 15.140625 -16.703125 C 12.765625 -18.222656 10.390625 -19.753906 8.015625 -21.296875 C 4.035156 -23.847656 0.109375 -26.488281 -3.765625 -29.21875 C -7.347656 -31.71875 -10.617188 -34.566406 -13.578125 -37.765625 C -15.691406 -40.109375 -17.332031 -42.734375 -18.5 -45.640625 C -20.320312 -50.421875 -20.144531 -55.140625 -17.96875 -59.796875 C -15.613281 -64.992188 -11.769531 -69.882812 -6.4375 -74.46875 C -1.101562 -79.050781 5.253906 -83.25 12.640625 -87.0625 C 20.035156 -90.882812 28.019531 -94.304688 36.59375 -97.328125 C 45.175781 -100.347656 53.914062 -102.921875 62.8125 -105.046875 C 71.707031 -107.179688 80.3125 -108.8125 88.625 -109.9375 C 96.9375 -111.070312 104.523438 -111.664062 111.390625 -111.71875 C 118.265625 -111.769531 123.988281 -111.226562 128.5625 -110.09375 C 130.976562 -109.582031 133.296875 -108.707031 135.515625 -107.46875 Z M 135.515625 -107.46875 "/></g></g><g transform="translate(264.925651, 210.57659)"><g><path d="M 18.53125 -18.09375 C 19.03125 -17.914062 19.171875 -17.296875 18.953125 -16.234375 C 18.503906 -15.398438 18.015625 -14.613281 17.484375 -13.875 C 16.960938 -13.144531 16.367188 -12.460938 15.703125 -11.828125 C 15.640625 -11.816406 15.609375 -11.796875 15.609375 -11.765625 C 15.171875 -11.347656 14.695312 -10.96875 14.1875 -10.625 C 9.84375 -8.21875 7.332031 -8.8125 6.65625 -12.40625 C 5.0625 -10.476562 3.972656 -9.28125 3.390625 -8.8125 C 2.015625 -7.65625 0.4375 -6.984375 -1.34375 -6.796875 C -2.65625 -6.660156 -3.609375 -6.910156 -4.203125 -7.546875 C -4.796875 -8.191406 -4.914062 -9.179688 -4.5625 -10.515625 C -4.019531 -12.585938 -3.097656 -14.515625 -1.796875 -16.296875 C -0.234375 -18.273438 1.578125 -19.957031 3.640625 -21.34375 C 4.742188 -22.132812 5.957031 -22.566406 7.28125 -22.640625 C 8.59375 -22.785156 9.503906 -22.175781 10.015625 -20.8125 C 10.191406 -20.40625 10.140625 -20.007812 9.859375 -19.625 C 9.503906 -19.1875 9.035156 -19.019531 8.453125 -19.125 C 8.410156 -19.113281 8.351562 -19.113281 8.28125 -19.125 C 8.207031 -19.132812 8.148438 -19.160156 8.109375 -19.203125 C 7.429688 -19.878906 6.816406 -20.109375 6.265625 -19.890625 C 5.710938 -19.671875 5.15625 -19.316406 4.59375 -18.828125 C 1.90625 -16.617188 0.0859375 -13.847656 -0.859375 -10.515625 C -0.910156 -10.367188 -0.929688 -10.210938 -0.921875 -10.046875 C -0.921875 -9.890625 -0.851562 -9.769531 -0.71875 -9.6875 C -0.34375 -9.625 0.0351562 -9.707031 0.421875 -9.9375 C 0.816406 -10.175781 1.203125 -10.488281 1.578125 -10.875 C 1.960938 -11.257812 2.273438 -11.582031 2.515625 -11.84375 C 2.535156 -11.914062 2.546875 -11.953125 2.546875 -11.953125 C 3.773438 -13.335938 4.960938 -14.753906 6.109375 -16.203125 C 6.597656 -16.941406 7.28125 -17.425781 8.15625 -17.65625 C 9.414062 -17.851562 10.039062 -17.363281 10.03125 -16.1875 C 9.976562 -15.75 9.914062 -15.304688 9.84375 -14.859375 C 9.644531 -12.941406 9.800781 -11.863281 10.3125 -11.625 C 10.820312 -11.394531 11.523438 -11.507812 12.421875 -11.96875 C 13.328125 -12.4375 14.179688 -13.195312 14.984375 -14.25 C 15.796875 -15.300781 16.46875 -16.25 17 -17.09375 C 17.53125 -17.9375 18.039062 -18.269531 18.53125 -18.09375 Z M 18.53125 -18.09375 "/></g></g><g transform="translate(284.055721, 207.469413)"><g><path d="M 21.234375 -17.265625 C 20.941406 -16.890625 20.625 -16.539062 20.28125 -16.21875 C 19.175781 -15.257812 18.160156 -14.476562 17.234375 -13.875 C 16.316406 -13.269531 15.226562 -12.628906 13.96875 -11.953125 C 12.0625 -11.035156 10.753906 -10.960938 10.046875 -11.734375 C 9.335938 -12.503906 9.046875 -13.691406 9.171875 -15.296875 C 9.359375 -17.566406 9.410156 -19.21875 9.328125 -20.25 C 9.253906 -21.28125 8.859375 -21.578125 8.140625 -21.140625 C 7.429688 -20.703125 6.226562 -19.425781 4.53125 -17.3125 C 2.144531 -14.457031 0.207031 -11.320312 -1.28125 -7.90625 C -1.46875 -7.4375 -1.71875 -7.039062 -2.03125 -6.71875 C -2.351562 -6.394531 -2.785156 -6.1875 -3.328125 -6.09375 C -3.835938 -6.007812 -4.234375 -6.082031 -4.515625 -6.3125 C -4.796875 -6.539062 -4.867188 -6.898438 -4.734375 -7.390625 C -4.003906 -10.078125 -3.238281 -12.753906 -2.4375 -15.421875 C -1.101562 -20.015625 0.210938 -24.585938 1.515625 -29.140625 C 2.484375 -32.546875 3.425781 -35.957031 4.34375 -39.375 C 4.925781 -41.382812 5.488281 -43.394531 6.03125 -45.40625 C 6.09375 -45.5625 6.15625 -45.738281 6.21875 -45.9375 C 6.269531 -46.15625 6.328125 -46.375 6.390625 -46.59375 C 6.453125 -46.820312 6.53125 -47.078125 6.625 -47.359375 C 6.71875 -47.585938 6.910156 -47.796875 7.203125 -47.984375 C 7.492188 -48.179688 7.796875 -48.320312 8.109375 -48.40625 C 8.429688 -48.488281 8.679688 -48.507812 8.859375 -48.46875 C 9.128906 -48.332031 9.296875 -48.164062 9.359375 -47.96875 C 9.429688 -47.78125 9.429688 -47.582031 9.359375 -47.375 C 9.328125 -47.320312 9.320312 -47.25 9.34375 -47.15625 C 9.144531 -45.945312 8.914062 -44.78125 8.65625 -43.65625 C 7.175781 -37.382812 5.457031 -31.148438 3.5 -24.953125 C 3.34375 -24.546875 3.160156 -24.050781 2.953125 -23.46875 C 2.660156 -22.625 2.390625 -21.800781 2.140625 -21 C 1.898438 -20.207031 1.863281 -19.695312 2.03125 -19.46875 C 2.195312 -19.238281 2.738281 -19.523438 3.65625 -20.328125 C 3.9375 -20.578125 4.1875 -20.828125 4.40625 -21.078125 C 5.113281 -21.753906 5.828125 -22.394531 6.546875 -23 C 7.160156 -23.570312 7.890625 -23.945312 8.734375 -24.125 C 10.722656 -24.59375 12 -23.863281 12.5625 -21.9375 C 12.800781 -21.164062 12.90625 -20.382812 12.875 -19.59375 C 12.84375 -18.800781 12.773438 -18.015625 12.671875 -17.234375 C 12.679688 -17.003906 12.679688 -16.785156 12.671875 -16.578125 C 12.546875 -15.203125 12.757812 -14.460938 13.3125 -14.359375 C 13.875 -14.253906 14.597656 -14.476562 15.484375 -15.03125 C 16.367188 -15.59375 17.257812 -16.25 18.15625 -17 C 18.769531 -17.4375 19.3125 -17.820312 19.78125 -18.15625 C 20.25 -18.488281 20.609375 -18.660156 20.859375 -18.671875 C 21.328125 -18.671875 21.566406 -18.515625 21.578125 -18.203125 C 21.597656 -17.898438 21.484375 -17.585938 21.234375 -17.265625 Z M 21.234375 -17.265625 "/></g></g><g transform="translate(306.07117, 203.893581)"><g><path d="M 18.53125 -18.09375 C 19.03125 -17.914062 19.171875 -17.296875 18.953125 -16.234375 C 18.503906 -15.398438 18.015625 -14.613281 17.484375 -13.875 C 16.960938 -13.144531 16.367188 -12.460938 15.703125 -11.828125 C 15.640625 -11.816406 15.609375 -11.796875 15.609375 -11.765625 C 15.171875 -11.347656 14.695312 -10.96875 14.1875 -10.625 C 9.84375 -8.21875 7.332031 -8.8125 6.65625 -12.40625 C 5.0625 -10.476562 3.972656 -9.28125 3.390625 -8.8125 C 2.015625 -7.65625 0.4375 -6.984375 -1.34375 -6.796875 C -2.65625 -6.660156 -3.609375 -6.910156 -4.203125 -7.546875 C -4.796875 -8.191406 -4.914062 -9.179688 -4.5625 -10.515625 C -4.019531 -12.585938 -3.097656 -14.515625 -1.796875 -16.296875 C -0.234375 -18.273438 1.578125 -19.957031 3.640625 -21.34375 C 4.742188 -22.132812 5.957031 -22.566406 7.28125 -22.640625 C 8.59375 -22.785156 9.503906 -22.175781 10.015625 -20.8125 C 10.191406 -20.40625 10.140625 -20.007812 9.859375 -19.625 C 9.503906 -19.1875 9.035156 -19.019531 8.453125 -19.125 C 8.410156 -19.113281 8.351562 -19.113281 8.28125 -19.125 C 8.207031 -19.132812 8.148438 -19.160156 8.109375 -19.203125 C 7.429688 -19.878906 6.816406 -20.109375 6.265625 -19.890625 C 5.710938 -19.671875 5.15625 -19.316406 4.59375 -18.828125 C 1.90625 -16.617188 0.0859375 -13.847656 -0.859375 -10.515625 C -0.910156 -10.367188 -0.929688 -10.210938 -0.921875 -10.046875 C -0.921875 -9.890625 -0.851562 -9.769531 -0.71875 -9.6875 C -0.34375 -9.625 0.0351562 -9.707031 0.421875 -9.9375 C 0.816406 -10.175781 1.203125 -10.488281 1.578125 -10.875 C 1.960938 -11.257812 2.273438 -11.582031 2.515625 -11.84375 C 2.535156 -11.914062 2.546875 -11.953125 2.546875 -11.953125 C 3.773438 -13.335938 4.960938 -14.753906 6.109375 -16.203125 C 6.597656 -16.941406 7.28125 -17.425781 8.15625 -17.65625 C 9.414062 -17.851562 10.039062 -17.363281 10.03125 -16.1875 C 9.976562 -15.75 9.914062 -15.304688 9.84375 -14.859375 C 9.644531 -12.941406 9.800781 -11.863281 10.3125 -11.625 C 10.820312 -11.394531 11.523438 -11.507812 12.421875 -11.96875 C 13.328125 -12.4375 14.179688 -13.195312 14.984375 -14.25 C 15.796875 -15.300781 16.46875 -16.25 17 -17.09375 C 17.53125 -17.9375 18.039062 -18.269531 18.53125 -18.09375 Z M 18.53125 -18.09375 "/></g></g></g><g fill="#ffffff" fill-opacity="1"><g transform="translate(49.604085, 241.727861)"><g><path d="M 151.65625 -51.703125 C 147.90625 -51.515625 144.160156 -51.117188 140.421875 -50.515625 C 138.785156 -50.304688 137.125 -50.085938 135.4375 -49.859375 C 119.914062 -47.984375 104.445312 -45.640625 89.03125 -42.828125 C 88.257812 -42.703125 87.617188 -42.597656 87.109375 -42.515625 C 86.253906 -42.441406 85.640625 -42.335938 85.265625 -42.203125 C 84.890625 -42.078125 84.613281 -41.816406 84.4375 -41.421875 C 84.269531 -41.023438 84.097656 -40.398438 83.921875 -39.546875 C 83.785156 -39.046875 83.632812 -38.425781 83.46875 -37.6875 C 81.789062 -31.644531 80.347656 -25.546875 79.140625 -19.390625 C 78.347656 -15.410156 77.882812 -11.382812 77.75 -7.3125 C 77.664062 -6.039062 77.757812 -4.832031 78.03125 -3.6875 C 78.3125 -2.539062 79.003906 -1.582031 80.109375 -0.8125 C 80.253906 -0.738281 80.320312 -0.625 80.3125 -0.46875 C 80.300781 -0.320312 80.238281 -0.175781 80.125 -0.03125 C 80.007812 0.113281 79.878906 0.21875 79.734375 0.28125 C 77.492188 1.007812 75.984375 0.414062 75.203125 -1.5 C 74.753906 -2.5625 74.519531 -3.695312 74.5 -4.90625 C 74.476562 -5.007812 74.46875 -5.082031 74.46875 -5.125 C 74.3125 -7.15625 74.34375 -9.207031 74.5625 -11.28125 C 74.789062 -13.363281 75.082031 -15.46875 75.4375 -17.59375 C 76.632812 -23.9375 78.066406 -30.25 79.734375 -36.53125 C 79.828125 -36.789062 79.890625 -37.054688 79.921875 -37.328125 C 80.015625 -37.640625 80.109375 -37.957031 80.203125 -38.28125 C 80.359375 -38.75 80.488281 -39.207031 80.59375 -39.65625 C 80.695312 -40.101562 80.691406 -40.550781 80.578125 -41 C 80.328125 -41.144531 80.09375 -41.21875 79.875 -41.21875 C 79.65625 -41.226562 79.445312 -41.195312 79.25 -41.125 C 79.21875 -41.125 79.171875 -41.117188 79.109375 -41.109375 C 77.296875 -40.804688 75.476562 -40.488281 73.65625 -40.15625 C 73.15625 -40.070312 72.628906 -39.988281 72.078125 -39.90625 C 71.410156 -39.75 70.875 -39.441406 70.46875 -38.984375 C 70.070312 -38.523438 69.707031 -37.984375 69.375 -37.359375 C 68.9375 -36.554688 68.5 -35.753906 68.0625 -34.953125 C 66.1875 -31.546875 64.285156 -28.164062 62.359375 -24.8125 C 59.492188 -19.925781 56.445312 -15.164062 53.21875 -10.53125 C 50 -5.90625 46.5 -1.488281 42.71875 2.71875 C 37.988281 8.101562 32.832031 13.007812 27.25 17.4375 C 18.6875 24 9.242188 27.972656 -1.078125 29.359375 C -10.816406 30.722656 -19.988281 29.535156 -28.59375 25.796875 C -31.007812 24.734375 -33.226562 23.351562 -35.25 21.65625 C -36.613281 20.4375 -37.753906 19.066406 -38.671875 17.546875 C -39.597656 16.035156 -40.21875 14.328125 -40.53125 12.421875 C -40.8125 10.109375 -40.632812 7.898438 -40 5.796875 C -39.375 3.691406 -38.335938 1.703125 -36.890625 -0.171875 C -34.929688 -2.796875 -32.679688 -5.109375 -30.140625 -7.109375 C -27.691406 -9.140625 -25.125 -10.976562 -22.4375 -12.625 C -19.75 -14.269531 -17.023438 -15.796875 -14.265625 -17.203125 C -9.773438 -19.492188 -5.203125 -21.550781 -0.546875 -23.375 C 4.109375 -25.195312 8.816406 -26.867188 13.578125 -28.390625 C 24.859375 -31.859375 36.253906 -34.789062 47.765625 -37.1875 C 53.628906 -38.507812 59.5 -39.648438 65.375 -40.609375 C 67.007812 -40.835938 68.15625 -41.726562 68.8125 -43.28125 C 70.007812 -45.71875 71.21875 -48.171875 72.4375 -50.640625 C 74.332031 -54.421875 76.175781 -58.257812 77.96875 -62.15625 C 86.300781 -80.351562 94.125 -98.753906 101.4375 -117.359375 C 102.0625 -118.941406 102.65625 -120.535156 103.21875 -122.140625 C 103.488281 -122.953125 103.769531 -123.78125 104.0625 -124.625 C 104.40625 -125.695312 105.113281 -126.378906 106.1875 -126.671875 C 106.789062 -126.765625 107.257812 -126.660156 107.59375 -126.359375 C 107.925781 -126.066406 108.03125 -125.628906 107.90625 -125.046875 C 107.757812 -124.546875 107.59375 -124.0625 107.40625 -123.59375 C 106.238281 -120.40625 105.257812 -117.210938 104.46875 -114.015625 C 104.175781 -112.867188 103.882812 -111.75 103.59375 -110.65625 C 100.707031 -100.300781 97.804688 -89.9375 94.890625 -79.5625 C 92.671875 -71.550781 90.429688 -63.519531 88.171875 -55.46875 C 87.535156 -53.101562 86.90625 -50.742188 86.28125 -48.390625 C 86.132812 -47.890625 86 -47.414062 85.875 -46.96875 C 85.84375 -46.851562 85.816406 -46.738281 85.796875 -46.625 C 85.710938 -46.289062 85.648438 -45.96875 85.609375 -45.65625 C 85.566406 -45.34375 85.640625 -45.054688 85.828125 -44.796875 C 86.148438 -44.628906 86.503906 -44.566406 86.890625 -44.609375 C 87.273438 -44.648438 87.628906 -44.695312 87.953125 -44.75 C 88.222656 -44.84375 88.46875 -44.90625 88.6875 -44.9375 C 90.28125 -45.15625 91.882812 -45.414062 93.5 -45.71875 C 95.6875 -46.070312 97.882812 -46.410156 100.09375 -46.734375 C 112.144531 -48.460938 124.207031 -50.148438 136.28125 -51.796875 C 140.226562 -52.367188 144.164062 -52.84375 148.09375 -53.21875 C 148.4375 -53.238281 148.800781 -53.28125 149.1875 -53.34375 C 149.40625 -53.375 149.632812 -53.410156 149.875 -53.453125 C 150.382812 -53.535156 150.878906 -53.566406 151.359375 -53.546875 C 151.847656 -53.535156 152.328125 -53.445312 152.796875 -53.28125 C 152.878906 -53.226562 152.953125 -53.140625 153.015625 -53.015625 C 153.078125 -52.898438 153.09375 -52.800781 153.0625 -52.71875 C 153.082031 -52.582031 153.046875 -52.453125 152.953125 -52.328125 C 152.859375 -52.210938 152.78125 -52.128906 152.71875 -52.078125 C 152.394531 -51.890625 152.039062 -51.765625 151.65625 -51.703125 Z M 65.6875 -37.40625 C 65.78125 -37.695312 65.753906 -37.9375 65.609375 -38.125 C 65.472656 -38.320312 65.285156 -38.398438 65.046875 -38.359375 C 64.648438 -38.335938 64.242188 -38.269531 63.828125 -38.15625 C 63.609375 -38.125 63.394531 -38.09375 63.1875 -38.0625 C 48.707031 -35.53125 34.34375 -32.171875 20.09375 -27.984375 C 14.644531 -26.410156 9.257812 -24.625 3.9375 -22.625 C -1.382812 -20.632812 -6.613281 -18.375 -11.75 -15.84375 C -14.488281 -14.5 -17.171875 -13.023438 -19.796875 -11.421875 C -22.421875 -9.816406 -24.941406 -8.007812 -27.359375 -6 C -29.898438 -3.988281 -32.128906 -1.675781 -34.046875 0.9375 C -36.285156 4.125 -37.316406 7.296875 -37.140625 10.453125 C -36.972656 13.617188 -35.648438 16.476562 -33.171875 19.03125 C -31.359375 20.8125 -29.3125 22.253906 -27.03125 23.359375 C -18.664062 27.472656 -9.289062 28.742188 1.09375 27.171875 C 3.75 26.734375 6.738281 25.890625 10.0625 24.640625 C 13.375 23.359375 16.515625 21.773438 19.484375 19.890625 C 22.453125 18.003906 25.285156 15.878906 27.984375 13.515625 C 34.648438 7.753906 40.644531 1.332031 45.96875 -5.75 C 49.675781 -10.550781 53.09375 -15.53125 56.21875 -20.6875 C 59.34375 -25.851562 62.34375 -31.070312 65.21875 -36.34375 C 65.382812 -36.738281 65.539062 -37.09375 65.6875 -37.40625 Z M 82.390625 -46.234375 C 84.140625 -53.046875 85.984375 -59.84375 87.921875 -66.625 C 88.003906 -67 88.289062 -68.070312 88.78125 -69.84375 C 89.269531 -71.613281 89.832031 -73.664062 90.46875 -76 C 91.113281 -78.34375 91.691406 -80.550781 92.203125 -82.625 C 92.722656 -84.707031 93.066406 -86.257812 93.234375 -87.28125 C 93.410156 -88.3125 93.289062 -88.394531 92.875 -87.53125 C 92.78125 -87.332031 92.707031 -87.132812 92.65625 -86.9375 C 92.300781 -86.1875 91.96875 -85.441406 91.65625 -84.703125 C 89.019531 -78.679688 86.363281 -72.65625 83.6875 -66.625 C 81.019531 -60.601562 78.210938 -54.632812 75.265625 -48.71875 C 74.972656 -48.175781 74.6875 -47.59375 74.40625 -46.96875 C 73.820312 -45.84375 73.257812 -44.710938 72.71875 -43.578125 C 72.5 -43.117188 72.472656 -42.757812 72.640625 -42.5 C 72.816406 -42.238281 73.128906 -42.144531 73.578125 -42.21875 C 74.347656 -42.34375 75.109375 -42.484375 75.859375 -42.640625 C 77.035156 -42.929688 78.207031 -43.171875 79.375 -43.359375 C 80.289062 -43.460938 80.960938 -43.765625 81.390625 -44.265625 C 81.828125 -44.773438 82.160156 -45.429688 82.390625 -46.234375 Z M 82.390625 -46.234375 "/></g></g><g transform="translate(141.070631, 226.871524)"><g><path d="M 20.203125 -18.71875 C 20.535156 -18.269531 20.242188 -17.453125 19.328125 -16.265625 C 18.410156 -15.085938 16.710938 -13.550781 14.234375 -11.65625 C 13.285156 -11.070312 12.601562 -10.617188 12.1875 -10.296875 C 11.769531 -9.972656 11.484375 -9.597656 11.328125 -9.171875 C 11.179688 -8.742188 11.046875 -8.113281 10.921875 -7.28125 C 10.816406 -6.644531 10.671875 -5.804688 10.484375 -4.765625 C 10.210938 -3.453125 9.957031 -2.109375 9.71875 -0.734375 C 9.300781 2.085938 8.722656 4.894531 7.984375 7.6875 C 7.242188 10.476562 6.109375 12.992188 4.578125 15.234375 C 3.046875 17.484375 0.878906 19.164062 -1.921875 20.28125 C -4.753906 21.300781 -7.566406 21.84375 -10.359375 21.90625 C -13.148438 21.96875 -15.945312 21.640625 -18.75 20.921875 C -19.882812 20.617188 -20.941406 20.140625 -21.921875 19.484375 C -23.554688 18.273438 -23.921875 16.675781 -23.015625 14.6875 C -22.523438 13.695312 -21.914062 12.78125 -21.1875 11.9375 C -19.707031 10.300781 -18.144531 8.765625 -16.5 7.328125 C -13.382812 4.691406 -10.164062 2.21875 -6.84375 -0.09375 C -3.53125 -2.414062 -0.171875 -4.679688 3.234375 -6.890625 C 3.460938 -7.046875 3.722656 -7.210938 4.015625 -7.390625 C 4.921875 -8.015625 5.867188 -8.644531 6.859375 -9.28125 C 7.546875 -9.664062 7.960938 -10.238281 8.109375 -11 C 8.140625 -11.257812 8.125 -11.492188 8.0625 -11.703125 C 8 -11.828125 7.910156 -11.890625 7.796875 -11.890625 C 7.679688 -11.890625 7.5625 -11.84375 7.4375 -11.75 C 7.125 -11.476562 6.789062 -11.175781 6.4375 -10.84375 C 6.257812 -10.695312 6.050781 -10.515625 5.8125 -10.296875 C 4.613281 -9.304688 3.296875 -8.75 1.859375 -8.625 C -0.390625 -8.257812 -1.703125 -9.082031 -2.078125 -11.09375 C -2.390625 -12.75 -2.359375 -14.363281 -1.984375 -15.9375 C -1.617188 -17.519531 -0.984375 -19.050781 -0.078125 -20.53125 C 0.015625 -20.6875 0.160156 -20.820312 0.359375 -20.9375 C 0.554688 -21.0625 0.753906 -21.164062 0.953125 -21.25 C 0.984375 -21.25 1.03125 -21.273438 1.09375 -21.328125 C 1.507812 -21.429688 1.851562 -21.375 2.125 -21.15625 C 2.394531 -20.945312 2.492188 -20.640625 2.421875 -20.234375 C 2.265625 -19.648438 2.101562 -19.0625 1.9375 -18.46875 C 1.800781 -18.019531 1.65625 -17.554688 1.5 -17.078125 C 0.9375 -15.296875 0.832031 -13.507812 1.1875 -11.71875 C 1.289062 -11.332031 1.507812 -11.078125 1.84375 -10.953125 C 2.175781 -10.828125 2.519531 -10.878906 2.875 -11.109375 C 3.9375 -11.765625 4.820312 -12.585938 5.53125 -13.578125 C 7.476562 -16.023438 8.972656 -18.722656 10.015625 -21.671875 C 10.160156 -22.085938 10.351562 -22.453125 10.59375 -22.765625 C 10.832031 -23.078125 11.175781 -23.289062 11.625 -23.40625 C 12.21875 -23.570312 12.695312 -23.519531 13.0625 -23.25 C 13.425781 -22.976562 13.582031 -22.570312 13.53125 -22.03125 C 13.28125 -20.21875 12.992188 -18.414062 12.671875 -16.625 C 12.648438 -16.476562 12.617188 -16.34375 12.578125 -16.21875 C 12.492188 -15.820312 12.414062 -15.394531 12.34375 -14.9375 C 12.28125 -14.488281 12.269531 -14.109375 12.3125 -13.796875 C 12.363281 -13.484375 12.53125 -13.351562 12.8125 -13.40625 C 13.820312 -13.769531 15.222656 -14.859375 17.015625 -16.671875 C 18.804688 -18.484375 19.867188 -19.164062 20.203125 -18.71875 Z M 6.96875 -4.671875 C 6.945312 -4.773438 6.960938 -4.867188 7.015625 -4.953125 C 7.085938 -5.191406 7.113281 -5.4375 7.09375 -5.6875 C 7.070312 -5.945312 6.96875 -6.195312 6.78125 -6.4375 C 6.644531 -6.414062 6.535156 -6.398438 6.453125 -6.390625 C 6.191406 -6.285156 5.957031 -6.175781 5.75 -6.0625 C 5.363281 -5.820312 4.976562 -5.554688 4.59375 -5.265625 C 1.457031 -3.160156 -1.664062 -1.007812 -4.78125 1.1875 C -7.894531 3.394531 -10.929688 5.695312 -13.890625 8.09375 C -15.671875 9.550781 -17.316406 11.179688 -18.828125 12.984375 C -20.046875 14.472656 -20.546875 15.6875 -20.328125 16.625 C -20.117188 17.570312 -19.144531 18.300781 -17.40625 18.8125 C -13.414062 20.125 -9.335938 20.265625 -5.171875 19.234375 C -2.328125 18.472656 -0.160156 17.003906 1.328125 14.828125 C 2.828125 12.648438 3.929688 10.15625 4.640625 7.34375 C 5.359375 4.53125 5.929688 1.75 6.359375 -1 C 6.515625 -2.289062 6.71875 -3.515625 6.96875 -4.671875 Z M 6.96875 -4.671875 "/></g></g><g transform="translate(162.076198, 223.459722)"><g><path d="M 3.46875 -7.578125 L 3.390625 -7.5625 C 0.597656 -7.144531 -1.335938 -7.46875 -2.421875 -8.53125 C -3.503906 -9.59375 -3.722656 -11.203125 -3.078125 -13.359375 C -2.515625 -15.003906 -1.71875 -16.492188 -0.6875 -17.828125 C -0.320312 -18.285156 0.0625 -18.664062 0.46875 -18.96875 C 0.875 -19.269531 1.359375 -19.46875 1.921875 -19.5625 C 2.234375 -19.675781 2.617188 -19.675781 3.078125 -19.5625 C 3.210938 -19.539062 3.351562 -19.515625 3.5 -19.484375 C 3.8125 -19.597656 4.113281 -19.753906 4.40625 -19.953125 C 4.46875 -20.035156 4.5625 -20.101562 4.6875 -20.15625 C 5.289062 -20.519531 5.945312 -20.738281 6.65625 -20.8125 C 6.9375 -20.851562 7.234375 -20.898438 7.546875 -20.953125 C 8.710938 -20.960938 9.644531 -20.625 10.34375 -19.9375 C 11.050781 -19.25 11.410156 -18.332031 11.421875 -17.1875 C 11.429688 -16.507812 11.320312 -15.84375 11.09375 -15.1875 C 9.53125 -10.863281 7.050781 -8.335938 3.65625 -7.609375 Z M 6.359375 -18.65625 C 4.828125 -18.46875 3.546875 -17.804688 2.515625 -16.671875 C 1.484375 -15.546875 0.78125 -14.332031 0.40625 -13.03125 C 0.03125 -11.726562 0.03125 -10.707031 0.40625 -9.96875 C 0.789062 -9.238281 1.625 -9.15625 2.90625 -9.71875 C 4.351562 -10.425781 5.554688 -11.503906 6.515625 -12.953125 C 7.472656 -14.410156 7.988281 -15.734375 8.0625 -16.921875 C 8.144531 -18.117188 7.578125 -18.695312 6.359375 -18.65625 Z M 6.359375 -18.65625 "/></g></g><g transform="translate(177.397565, 220.971168)"><g><path d="M 20.515625 -18.109375 C 20.867188 -17.765625 20.59375 -17 19.6875 -15.8125 C 18.78125 -14.625 17.773438 -13.582031 16.671875 -12.6875 C 15.578125 -11.800781 14.285156 -10.882812 12.796875 -9.9375 C 11.828125 -9.300781 10.734375 -8.960938 9.515625 -8.921875 C 8.296875 -8.878906 7.582031 -9.5 7.375 -10.78125 C 7.164062 -12.070312 7.253906 -13.40625 7.640625 -14.78125 C 8.023438 -16.175781 8.046875 -16.867188 7.703125 -16.859375 C 7.359375 -16.847656 6.710938 -16.414062 5.765625 -15.5625 C 3.304688 -13.300781 1.082031 -10.816406 -0.90625 -8.109375 C -1.425781 -7.234375 -2.164062 -6.679688 -3.125 -6.453125 C -3.632812 -6.367188 -4.050781 -6.460938 -4.375 -6.734375 C -4.695312 -7.003906 -4.78125 -7.34375 -4.625 -7.75 C -3.445312 -11.15625 -2.242188 -14.523438 -1.015625 -17.859375 C -0.734375 -18.554688 -0.21875 -19.046875 0.53125 -19.328125 C 0.851562 -19.441406 1.171875 -19.390625 1.484375 -19.171875 C 1.804688 -18.960938 1.992188 -18.691406 2.046875 -18.359375 C 2.054688 -18.046875 1.992188 -17.660156 1.859375 -17.203125 C 1.796875 -16.941406 1.738281 -16.6875 1.6875 -16.4375 C 1.644531 -16.195312 1.648438 -16 1.703125 -15.84375 C 1.753906 -15.695312 1.882812 -15.671875 2.09375 -15.765625 C 2.351562 -15.972656 2.613281 -16.179688 2.875 -16.390625 C 3.539062 -16.929688 4.175781 -17.453125 4.78125 -17.953125 C 5.320312 -18.398438 5.894531 -18.8125 6.5 -19.1875 C 7.113281 -19.5625 7.769531 -19.851562 8.46875 -20.0625 C 9.613281 -20.332031 10.472656 -20.207031 11.046875 -19.6875 C 11.628906 -19.164062 11.820312 -18.34375 11.625 -17.21875 C 11.40625 -16.195312 11.148438 -15.179688 10.859375 -14.171875 C 10.492188 -13.203125 10.519531 -12.515625 10.9375 -12.109375 C 11.363281 -11.703125 12.882812 -12.492188 15.5 -14.484375 L 17.46875 -16.09375 C 19.289062 -17.738281 20.304688 -18.410156 20.515625 -18.109375 Z M 20.515625 -18.109375 "/></g></g><g transform="translate(198.547401, 217.535933)"><g/></g><g transform="translate(220.360874, 213.992908)"><g><path d="M 135.515625 -107.46875 C 136.078125 -107.125 136.601562 -106.722656 137.09375 -106.265625 C 137.59375 -105.804688 137.957031 -105.210938 138.1875 -104.484375 C 138.457031 -103.703125 138.269531 -103.039062 137.625 -102.5 C 137.238281 -102.226562 136.828125 -102.132812 136.390625 -102.21875 C 135.960938 -102.300781 135.628906 -102.5625 135.390625 -103 C 134.710938 -104.1875 133.847656 -105.070312 132.796875 -105.65625 C 131.753906 -106.25 130.632812 -106.742188 129.4375 -107.140625 C 126.8125 -108.003906 124.144531 -108.625 121.4375 -109 C 118.726562 -109.382812 116.019531 -109.660156 113.3125 -109.828125 C 108.789062 -110.046875 102.878906 -109.703125 95.578125 -108.796875 C 88.273438 -107.898438 80.207031 -106.484375 71.375 -104.546875 C 62.550781 -102.617188 53.585938 -100.1875 44.484375 -97.25 C 35.378906 -94.320312 26.765625 -90.925781 18.640625 -87.0625 C 10.515625 -83.207031 3.523438 -78.914062 -2.328125 -74.1875 C -8.179688 -69.46875 -12.289062 -64.347656 -14.65625 -58.828125 C -16.59375 -54.046875 -16.378906 -49.375 -14.015625 -44.8125 C -12.304688 -41.695312 -10.160156 -38.953125 -7.578125 -36.578125 C -3.703125 -33.046875 0.457031 -29.898438 4.90625 -27.140625 C 8.6875 -24.679688 12.5 -22.222656 16.34375 -19.765625 C 20.0625 -17.421875 23.796875 -15.03125 27.546875 -12.59375 C 31.710938 -9.832031 35.835938 -7.023438 39.921875 -4.171875 C 40.296875 -3.890625 40.679688 -3.628906 41.078125 -3.390625 C 43.273438 -1.921875 45.269531 -0.234375 47.0625 1.671875 C 48.945312 3.898438 49.539062 5.765625 48.84375 7.265625 C 48.144531 8.773438 46.554688 9.976562 44.078125 10.875 C 41.597656 11.769531 38.648438 12.398438 35.234375 12.765625 C 31.816406 13.128906 28.335938 13.257812 24.796875 13.15625 C 21.265625 13.050781 18.085938 12.753906 15.265625 12.265625 C 12.453125 11.773438 10.421875 11.125 9.171875 10.3125 C 6.648438 8.632812 6.148438 6.507812 7.671875 3.9375 C 9.359375 1.28125 11.597656 -0.820312 14.390625 -2.375 C 18.421875 -4.726562 22.738281 -5.566406 27.34375 -4.890625 C 28.226562 -4.710938 29.097656 -4.4375 29.953125 -4.0625 C 30.046875 -4.039062 30.125 -4.003906 30.1875 -3.953125 C 30.414062 -3.867188 30.585938 -3.71875 30.703125 -3.5 C 30.816406 -3.289062 30.820312 -3.035156 30.71875 -2.734375 C 30.425781 -2.253906 30.023438 -2.0625 29.515625 -2.15625 C 28.992188 -2.25 28.503906 -2.390625 28.046875 -2.578125 C 24.753906 -3.597656 21.570312 -3.40625 18.5 -2 C 15.4375 -0.59375 13.007812 1.597656 11.21875 4.578125 C 10.476562 6.003906 10.613281 7.125 11.625 7.9375 C 12.632812 8.75 14.082031 9.335938 15.96875 9.703125 C 17.863281 10.078125 19.738281 10.304688 21.59375 10.390625 C 23.457031 10.472656 24.84375 10.507812 25.75 10.5 C 25.925781 10.476562 26.050781 10.484375 26.125 10.515625 C 26.300781 10.484375 26.519531 10.460938 26.78125 10.453125 C 27.957031 10.523438 29.550781 10.539062 31.5625 10.5 C 33.582031 10.457031 35.648438 10.316406 37.765625 10.078125 C 39.878906 9.835938 41.65625 9.40625 43.09375 8.78125 C 44.53125 8.164062 45.253906 7.289062 45.265625 6.15625 C 45.285156 5.019531 44.1875 3.53125 41.96875 1.6875 C 39.601562 -0.28125 37.144531 -2.160156 34.59375 -3.953125 C 28.226562 -8.390625 21.742188 -12.640625 15.140625 -16.703125 C 12.765625 -18.222656 10.390625 -19.753906 8.015625 -21.296875 C 4.035156 -23.847656 0.109375 -26.488281 -3.765625 -29.21875 C -7.347656 -31.71875 -10.617188 -34.566406 -13.578125 -37.765625 C -15.691406 -40.109375 -17.332031 -42.734375 -18.5 -45.640625 C -20.320312 -50.421875 -20.144531 -55.140625 -17.96875 -59.796875 C -15.613281 -64.992188 -11.769531 -69.882812 -6.4375 -74.46875 C -1.101562 -79.050781 5.253906 -83.25 12.640625 -87.0625 C 20.035156 -90.882812 28.019531 -94.304688 36.59375 -97.328125 C 45.175781 -100.347656 53.914062 -102.921875 62.8125 -105.046875 C 71.707031 -107.179688 80.3125 -108.8125 88.625 -109.9375 C 96.9375 -111.070312 104.523438 -111.664062 111.390625 -111.71875 C 118.265625 -111.769531 123.988281 -111.226562 128.5625 -110.09375 C 130.976562 -109.582031 133.296875 -108.707031 135.515625 -107.46875 Z M 135.515625 -107.46875 "/></g></g><g transform="translate(262.891375, 207.084945)"><g><path d="M 18.53125 -18.09375 C 19.03125 -17.914062 19.171875 -17.296875 18.953125 -16.234375 C 18.503906 -15.398438 18.015625 -14.613281 17.484375 -13.875 C 16.960938 -13.144531 16.367188 -12.460938 15.703125 -11.828125 C 15.640625 -11.816406 15.609375 -11.796875 15.609375 -11.765625 C 15.171875 -11.347656 14.695312 -10.96875 14.1875 -10.625 C 9.84375 -8.21875 7.332031 -8.8125 6.65625 -12.40625 C 5.0625 -10.476562 3.972656 -9.28125 3.390625 -8.8125 C 2.015625 -7.65625 0.4375 -6.984375 -1.34375 -6.796875 C -2.65625 -6.660156 -3.609375 -6.910156 -4.203125 -7.546875 C -4.796875 -8.191406 -4.914062 -9.179688 -4.5625 -10.515625 C -4.019531 -12.585938 -3.097656 -14.515625 -1.796875 -16.296875 C -0.234375 -18.273438 1.578125 -19.957031 3.640625 -21.34375 C 4.742188 -22.132812 5.957031 -22.566406 7.28125 -22.640625 C 8.59375 -22.785156 9.503906 -22.175781 10.015625 -20.8125 C 10.191406 -20.40625 10.140625 -20.007812 9.859375 -19.625 C 9.503906 -19.1875 9.035156 -19.019531 8.453125 -19.125 C 8.410156 -19.113281 8.351562 -19.113281 8.28125 -19.125 C 8.207031 -19.132812 8.148438 -19.160156 8.109375 -19.203125 C 7.429688 -19.878906 6.816406 -20.109375 6.265625 -19.890625 C 5.710938 -19.671875 5.15625 -19.316406 4.59375 -18.828125 C 1.90625 -16.617188 0.0859375 -13.847656 -0.859375 -10.515625 C -0.910156 -10.367188 -0.929688 -10.210938 -0.921875 -10.046875 C -0.921875 -9.890625 -0.851562 -9.769531 -0.71875 -9.6875 C -0.34375 -9.625 0.0351562 -9.707031 0.421875 -9.9375 C 0.816406 -10.175781 1.203125 -10.488281 1.578125 -10.875 C 1.960938 -11.257812 2.273438 -11.582031 2.515625 -11.84375 C 2.535156 -11.914062 2.546875 -11.953125 2.546875 -11.953125 C 3.773438 -13.335938 4.960938 -14.753906 6.109375 -16.203125 C 6.597656 -16.941406 7.28125 -17.425781 8.15625 -17.65625 C 9.414062 -17.851562 10.039062 -17.363281 10.03125 -16.1875 C 9.976562 -15.75 9.914062 -15.304688 9.84375 -14.859375 C 9.644531 -12.941406 9.800781 -11.863281 10.3125 -11.625 C 10.820312 -11.394531 11.523438 -11.507812 12.421875 -11.96875 C 13.328125 -12.4375 14.179688 -13.195312 14.984375 -14.25 C 15.796875 -15.300781 16.46875 -16.25 17 -17.09375 C 17.53125 -17.9375 18.039062 -18.269531 18.53125 -18.09375 Z M 18.53125 -18.09375 "/></g></g><g transform="translate(282.021445, 203.977768)"><g><path d="M 21.234375 -17.265625 C 20.941406 -16.890625 20.625 -16.539062 20.28125 -16.21875 C 19.175781 -15.257812 18.160156 -14.476562 17.234375 -13.875 C 16.316406 -13.269531 15.226562 -12.628906 13.96875 -11.953125 C 12.0625 -11.035156 10.753906 -10.960938 10.046875 -11.734375 C 9.335938 -12.503906 9.046875 -13.691406 9.171875 -15.296875 C 9.359375 -17.566406 9.410156 -19.21875 9.328125 -20.25 C 9.253906 -21.28125 8.859375 -21.578125 8.140625 -21.140625 C 7.429688 -20.703125 6.226562 -19.425781 4.53125 -17.3125 C 2.144531 -14.457031 0.207031 -11.320312 -1.28125 -7.90625 C -1.46875 -7.4375 -1.71875 -7.039062 -2.03125 -6.71875 C -2.351562 -6.394531 -2.785156 -6.1875 -3.328125 -6.09375 C -3.835938 -6.007812 -4.234375 -6.082031 -4.515625 -6.3125 C -4.796875 -6.539062 -4.867188 -6.898438 -4.734375 -7.390625 C -4.003906 -10.078125 -3.238281 -12.753906 -2.4375 -15.421875 C -1.101562 -20.015625 0.210938 -24.585938 1.515625 -29.140625 C 2.484375 -32.546875 3.425781 -35.957031 4.34375 -39.375 C 4.925781 -41.382812 5.488281 -43.394531 6.03125 -45.40625 C 6.09375 -45.5625 6.15625 -45.738281 6.21875 -45.9375 C 6.269531 -46.15625 6.328125 -46.375 6.390625 -46.59375 C 6.453125 -46.820312 6.53125 -47.078125 6.625 -47.359375 C 6.71875 -47.585938 6.910156 -47.796875 7.203125 -47.984375 C 7.492188 -48.179688 7.796875 -48.320312 8.109375 -48.40625 C 8.429688 -48.488281 8.679688 -48.507812 8.859375 -48.46875 C 9.128906 -48.332031 9.296875 -48.164062 9.359375 -47.96875 C 9.429688 -47.78125 9.429688 -47.582031 9.359375 -47.375 C 9.328125 -47.320312 9.320312 -47.25 9.34375 -47.15625 C 9.144531 -45.945312 8.914062 -44.78125 8.65625 -43.65625 C 7.175781 -37.382812 5.457031 -31.148438 3.5 -24.953125 C 3.34375 -24.546875 3.160156 -24.050781 2.953125 -23.46875 C 2.660156 -22.625 2.390625 -21.800781 2.140625 -21 C 1.898438 -20.207031 1.863281 -19.695312 2.03125 -19.46875 C 2.195312 -19.238281 2.738281 -19.523438 3.65625 -20.328125 C 3.9375 -20.578125 4.1875 -20.828125 4.40625 -21.078125 C 5.113281 -21.753906 5.828125 -22.394531 6.546875 -23 C 7.160156 -23.570312 7.890625 -23.945312 8.734375 -24.125 C 10.722656 -24.59375 12 -23.863281 12.5625 -21.9375 C 12.800781 -21.164062 12.90625 -20.382812 12.875 -19.59375 C 12.84375 -18.800781 12.773438 -18.015625 12.671875 -17.234375 C 12.679688 -17.003906 12.679688 -16.785156 12.671875 -16.578125 C 12.546875 -15.203125 12.757812 -14.460938 13.3125 -14.359375 C 13.875 -14.253906 14.597656 -14.476562 15.484375 -15.03125 C 16.367188 -15.59375 17.257812 -16.25 18.15625 -17 C 18.769531 -17.4375 19.3125 -17.820312 19.78125 -18.15625 C 20.25 -18.488281 20.609375 -18.660156 20.859375 -18.671875 C 21.328125 -18.671875 21.566406 -18.515625 21.578125 -18.203125 C 21.597656 -17.898438 21.484375 -17.585938 21.234375 -17.265625 Z M 21.234375 -17.265625 "/></g></g><g transform="translate(304.036894, 200.401937)"><g><path d="M 18.53125 -18.09375 C 19.03125 -17.914062 19.171875 -17.296875 18.953125 -16.234375 C 18.503906 -15.398438 18.015625 -14.613281 17.484375 -13.875 C 16.960938 -13.144531 16.367188 -12.460938 15.703125 -11.828125 C 15.640625 -11.816406 15.609375 -11.796875 15.609375 -11.765625 C 15.171875 -11.347656 14.695312 -10.96875 14.1875 -10.625 C 9.84375 -8.21875 7.332031 -8.8125 6.65625 -12.40625 C 5.0625 -10.476562 3.972656 -9.28125 3.390625 -8.8125 C 2.015625 -7.65625 0.4375 -6.984375 -1.34375 -6.796875 C -2.65625 -6.660156 -3.609375 -6.910156 -4.203125 -7.546875 C -4.796875 -8.191406 -4.914062 -9.179688 -4.5625 -10.515625 C -4.019531 -12.585938 -3.097656 -14.515625 -1.796875 -16.296875 C -0.234375 -18.273438 1.578125 -19.957031 3.640625 -21.34375 C 4.742188 -22.132812 5.957031 -22.566406 7.28125 -22.640625 C 8.59375 -22.785156 9.503906 -22.175781 10.015625 -20.8125 C 10.191406 -20.40625 10.140625 -20.007812 9.859375 -19.625 C 9.503906 -19.1875 9.035156 -19.019531 8.453125 -19.125 C 8.410156 -19.113281 8.351562 -19.113281 8.28125 -19.125 C 8.207031 -19.132812 8.148438 -19.160156 8.109375 -19.203125 C 7.429688 -19.878906 6.816406 -20.109375 6.265625 -19.890625 C 5.710938 -19.671875 5.15625 -19.316406 4.59375 -18.828125 C 1.90625 -16.617188 0.0859375 -13.847656 -0.859375 -10.515625 C -0.910156 -10.367188 -0.929688 -10.210938 -0.921875 -10.046875 C -0.921875 -9.890625 -0.851562 -9.769531 -0.71875 -9.6875 C -0.34375 -9.625 0.0351562 -9.707031 0.421875 -9.9375 C 0.816406 -10.175781 1.203125 -10.488281 1.578125 -10.875 C 1.960938 -11.257812 2.273438 -11.582031 2.515625 -11.84375 C 2.535156 -11.914062 2.546875 -11.953125 2.546875 -11.953125 C 3.773438 -13.335938 4.960938 -14.753906 6.109375 -16.203125 C 6.597656 -16.941406 7.28125 -17.425781 8.15625 -17.65625 C 9.414062 -17.851562 10.039062 -17.363281 10.03125 -16.1875 C 9.976562 -15.75 9.914062 -15.304688 9.84375 -14.859375 C 9.644531 -12.941406 9.800781 -11.863281 10.3125 -11.625 C 10.820312 -11.394531 11.523438 -11.507812 12.421875 -11.96875 C 13.328125 -12.4375 14.179688 -13.195312 14.984375 -14.25 C 15.796875 -15.300781 16.46875 -16.25 17 -17.09375 C 17.53125 -17.9375 18.039062 -18.269531 18.53125 -18.09375 Z M 18.53125 -18.09375 "/></g></g></g><g clip-path="url(#5e03907ad6)"><g clip-path="url(#6cea950a68)"><path fill="#000000" d="M 287.066406 188.25 L 291.136719 188.25 L 291.136719 192.320312 L 287.066406 192.320312 Z M 287.066406 188.25 " fill-opacity="1" fill-rule="nonzero"/></g></g></svg>